<svg width="39" height="25" viewBox="0 0 39 25" fill="none" xmlns="http://www.w3.org/2000/svg">
<path d="M0.613281 9V0.46875H3.02148C3.76367 0.46875 4.41992 0.632812 4.99023 0.960938C5.56055 1.28906 6 1.75586 6.30859 2.36133C6.62109 2.9668 6.7793 3.66211 6.7832 4.44727V4.99219C6.7832 5.79688 6.62695 6.50195 6.31445 7.10742C6.00586 7.71289 5.5625 8.17773 4.98438 8.50195C4.41016 8.82617 3.74023 8.99219 2.97461 9H0.613281ZM1.73828 1.39453V8.08008H2.92188C3.78906 8.08008 4.46289 7.81055 4.94336 7.27148C5.42773 6.73242 5.66992 5.96484 5.66992 4.96875V4.4707C5.66992 3.50195 5.44141 2.75 4.98438 2.21484C4.53125 1.67578 3.88672 1.40234 3.05078 1.39453H1.73828ZM9.49609 9H8.41211V2.66016H9.49609V9ZM8.32422 0.978516C8.32422 0.802734 8.37695 0.654297 8.48242 0.533203C8.5918 0.412109 8.75195 0.351562 8.96289 0.351562C9.17383 0.351562 9.33398 0.412109 9.44336 0.533203C9.55273 0.654297 9.60742 0.802734 9.60742 0.978516C9.60742 1.1543 9.55273 1.30078 9.44336 1.41797C9.33398 1.53516 9.17383 1.59375 8.96289 1.59375C8.75195 1.59375 8.5918 1.53516 8.48242 1.41797C8.37695 1.30078 8.32422 1.1543 8.32422 0.978516ZM14.9277 7.31836C14.9277 7.02539 14.8164 6.79883 14.5938 6.63867C14.375 6.47461 13.9902 6.33398 13.4395 6.2168C12.8926 6.09961 12.457 5.95898 12.1328 5.79492C11.8125 5.63086 11.5742 5.43555 11.418 5.20898C11.2656 4.98242 11.1895 4.71289 11.1895 4.40039C11.1895 3.88086 11.4082 3.44141 11.8457 3.08203C12.2871 2.72266 12.8496 2.54297 13.5332 2.54297C14.252 2.54297 14.834 2.72852 15.2793 3.09961C15.7285 3.4707 15.9531 3.94531 15.9531 4.52344H14.8633C14.8633 4.22656 14.7363 3.9707 14.4824 3.75586C14.2324 3.54102 13.916 3.43359 13.5332 3.43359C13.1387 3.43359 12.8301 3.51953 12.6074 3.69141C12.3848 3.86328 12.2734 4.08789 12.2734 4.36523C12.2734 4.62695 12.377 4.82422 12.584 4.95703C12.791 5.08984 13.1641 5.2168 13.7031 5.33789C14.2461 5.45898 14.6855 5.60352 15.0215 5.77148C15.3574 5.93945 15.6055 6.14258 15.7656 6.38086C15.9297 6.61523 16.0117 6.90234 16.0117 7.24219C16.0117 7.80859 15.7852 8.26367 15.332 8.60742C14.8789 8.94727 14.291 9.11719 13.5684 9.11719C13.0605 9.11719 12.6113 9.02734 12.2207 8.84766C11.8301 8.66797 11.5234 8.41797 11.3008 8.09766C11.082 7.77344 10.9727 7.42383 10.9727 7.04883H12.0566C12.0762 7.41211 12.2207 7.70117 12.4902 7.91602C12.7637 8.12695 13.123 8.23242 13.5684 8.23242C13.9785 8.23242 14.3066 8.15039 14.5527 7.98633C14.8027 7.81836 14.9277 7.5957 14.9277 7.31836ZM22.7793 5.90039C22.7793 6.86523 22.5586 7.64258 22.1172 8.23242C21.6758 8.82227 21.0781 9.11719 20.3242 9.11719C19.5547 9.11719 18.9492 8.87305 18.5078 8.38477V11.4375H17.4238V2.66016H18.4141L18.4668 3.36328C18.9082 2.81641 19.5215 2.54297 20.3066 2.54297C21.0684 2.54297 21.6699 2.83008 22.1113 3.4043C22.5566 3.97852 22.7793 4.77734 22.7793 5.80078V5.90039ZM21.6953 5.77734C21.6953 5.0625 21.543 4.49805 21.2383 4.08398C20.9336 3.66992 20.5156 3.46289 19.9844 3.46289C19.3281 3.46289 18.8359 3.75391 18.5078 4.33594V7.36523C18.832 7.94336 19.3281 8.23242 19.9961 8.23242C20.5156 8.23242 20.9277 8.02734 21.2324 7.61719C21.541 7.20312 21.6953 6.58984 21.6953 5.77734ZM25.3398 9H24.2559V0H25.3398V9ZM30.9941 9C30.9316 8.875 30.8809 8.65234 30.8418 8.33203C30.3379 8.85547 29.7363 9.11719 29.0371 9.11719C28.4121 9.11719 27.8984 8.94141 27.4961 8.58984C27.0977 8.23438 26.8984 7.78516 26.8984 7.24219C26.8984 6.58203 27.1484 6.07031 27.6484 5.70703C28.1523 5.33984 28.8594 5.15625 29.7695 5.15625H30.8242V4.6582C30.8242 4.2793 30.7109 3.97852 30.4844 3.75586C30.2578 3.5293 29.9238 3.41602 29.4824 3.41602C29.0957 3.41602 28.7715 3.51367 28.5098 3.70898C28.248 3.9043 28.1172 4.14062 28.1172 4.41797H27.0273C27.0273 4.10156 27.1387 3.79688 27.3613 3.50391C27.5879 3.20703 27.8926 2.97266 28.2754 2.80078C28.6621 2.62891 29.0859 2.54297 29.5469 2.54297C30.2773 2.54297 30.8496 2.72656 31.2637 3.09375C31.6777 3.45703 31.8926 3.95898 31.9082 4.59961V7.51758C31.9082 8.09961 31.9824 8.5625 32.1309 8.90625V9H30.9941ZM29.1953 8.17383C29.5352 8.17383 29.8574 8.08594 30.1621 7.91016C30.4668 7.73438 30.6875 7.50586 30.8242 7.22461V5.92383H29.9746C28.6465 5.92383 27.9824 6.3125 27.9824 7.08984C27.9824 7.42969 28.0957 7.69531 28.3223 7.88672C28.5488 8.07812 28.8398 8.17383 29.1953 8.17383ZM35.5879 7.41211L37.0645 2.66016H38.2246L35.6758 9.97852C35.2812 11.0332 34.6543 11.5605 33.7949 11.5605L33.5898 11.543L33.1855 11.4668V10.5879L33.4785 10.6113C33.8457 10.6113 34.1309 10.5371 34.334 10.3887C34.541 10.2402 34.7109 9.96875 34.8438 9.57422L35.084 8.92969L32.8223 2.66016H34.0059L35.5879 7.41211ZM10.0562 24H8.8374V14.7578H10.0562V24ZM13.2173 17.1318L13.2554 17.9951C13.7801 17.335 14.4657 17.0049 15.312 17.0049C16.7635 17.0049 17.4956 17.8237 17.5083 19.4614V24H16.334V19.4551C16.3298 18.96 16.2155 18.5939 15.9912 18.3569C15.7712 18.12 15.4263 18.0015 14.9565 18.0015C14.5757 18.0015 14.2414 18.103 13.9536 18.3062C13.6659 18.5093 13.4416 18.7759 13.2808 19.106V24H12.1064V17.1318H13.2173ZM19.8569 24V18.0396H18.7715V17.1318H19.8569V16.4272C19.8569 15.6909 20.0537 15.1217 20.4473 14.7197C20.8408 14.3177 21.3973 14.1167 22.1167 14.1167C22.3875 14.1167 22.6562 14.1527 22.9229 14.2246L22.8594 15.1768C22.6605 15.1387 22.4489 15.1196 22.2246 15.1196C21.8438 15.1196 21.5496 15.2318 21.3423 15.4561C21.1349 15.6761 21.0312 15.9935 21.0312 16.4082V17.1318H22.4976V18.0396H21.0312V24H19.8569ZM23.4878 20.5024C23.4878 19.8296 23.619 19.2244 23.8813 18.687C24.1479 18.1496 24.5161 17.7349 24.9858 17.4429C25.4598 17.1509 25.9993 17.0049 26.6045 17.0049C27.5397 17.0049 28.2951 17.3286 28.8706 17.9761C29.4504 18.6235 29.7402 19.4847 29.7402 20.5596V20.6421C29.7402 21.3107 29.6112 21.9116 29.353 22.4448C29.0991 22.9738 28.7331 23.3864 28.2549 23.6826C27.7809 23.9788 27.235 24.127 26.6172 24.127C25.6862 24.127 24.9308 23.8032 24.3511 23.1558C23.7756 22.5083 23.4878 21.6514 23.4878 20.585V20.5024ZM24.6685 20.6421C24.6685 21.4038 24.8441 22.0153 25.1953 22.4766C25.5508 22.9378 26.0247 23.1685 26.6172 23.1685C27.2139 23.1685 27.6878 22.9357 28.0391 22.4702C28.3903 22.0005 28.5659 21.3446 28.5659 20.5024C28.5659 19.7492 28.3861 19.1398 28.0264 18.6743C27.6709 18.2046 27.1969 17.9697 26.6045 17.9697C26.0247 17.9697 25.5571 18.2004 25.2017 18.6616C24.8462 19.1229 24.6685 19.783 24.6685 20.6421Z" fill="black"/>
</svg>
